<svg width="552" height="386" viewBox="0 0 552 386" fill="none" xmlns="http://www.w3.org/2000/svg">
<path d="M533.992 385.907H19.3561C14.7795 385.907 10.3904 384.084 7.15426 380.839C3.91813 377.594 2.1001 373.192 2.1001 368.603V368.603C188.656 346.862 371.705 346.862 551.248 368.603C551.248 370.876 550.802 373.126 549.935 375.225C549.068 377.324 547.796 379.232 546.194 380.839C544.592 382.446 542.689 383.72 540.596 384.59C538.502 385.459 536.258 385.907 533.992 385.907Z" fill="#2F2E41"/>
<path d="M551.248 369.621L2.1001 368.603L65.7445 261.217L66.049 260.708V24.0411C66.0487 21.1685 66.6128 18.324 67.7089 15.67C68.8051 13.016 70.4119 10.6045 72.4375 8.57324C74.4632 6.54199 76.868 4.93077 79.5146 3.83158C82.1613 2.73238 84.998 2.16675 87.8626 2.16699H462.441C465.305 2.16675 468.142 2.73238 470.789 3.83158C473.435 4.93077 475.84 6.54199 477.866 8.57324C479.891 10.6045 481.498 13.016 482.594 15.67C483.69 18.324 484.255 21.1685 484.254 24.0411V262.336L551.248 369.621Z" fill="#3F3D56"/>
<path d="M87.3657 17.4353C85.4819 17.4374 83.6758 18.1888 82.3437 19.5245C81.0117 20.8603 80.2624 22.6714 80.2603 24.5604V240.35C80.2625 242.239 81.0118 244.05 82.3438 245.386C83.6759 246.722 85.4819 247.473 87.3657 247.476H465.984C467.867 247.473 469.673 246.722 471.005 245.386C472.337 244.05 473.087 242.239 473.089 240.35V24.5604C473.087 22.6714 472.338 20.8604 471.005 19.5246C469.673 18.1889 467.867 17.4375 465.984 17.4353H87.3657Z" fill="#414141"/>
<path d="M88.9517 275.976C88.3696 275.977 87.7998 276.145 87.3097 276.46C86.8195 276.775 86.4293 277.224 86.185 277.753L66.5742 320.504C66.3608 320.969 66.2674 321.481 66.3027 321.992C66.338 322.503 66.5009 322.997 66.7764 323.428C67.0519 323.859 67.4311 324.214 67.8792 324.46C68.3272 324.705 68.8297 324.834 69.3404 324.834H481.745C482.264 324.834 482.775 324.701 483.228 324.448C483.681 324.194 484.063 323.829 484.336 323.386C484.608 322.943 484.764 322.438 484.787 321.918C484.81 321.398 484.701 320.88 484.468 320.415L463.152 277.664C462.901 277.156 462.512 276.728 462.031 276.43C461.55 276.132 460.995 275.974 460.429 275.976H88.9517Z" fill="#2F2E41"/>
<path d="M234.616 332.977C233.946 332.978 233.296 333.2 232.764 333.608C232.233 334.016 231.85 334.589 231.675 335.236L226.756 353.558C226.635 354.011 226.619 354.485 226.709 354.945C226.8 355.405 226.995 355.838 227.279 356.21C227.564 356.582 227.929 356.883 228.349 357.091C228.768 357.298 229.229 357.406 229.696 357.406H323.248C323.733 357.406 324.212 357.29 324.643 357.067C325.075 356.844 325.447 356.52 325.728 356.124C326.01 355.727 326.193 355.269 326.262 354.787C326.331 354.305 326.284 353.814 326.125 353.354L319.8 335.032C319.593 334.432 319.205 333.912 318.689 333.543C318.173 333.175 317.556 332.977 316.923 332.977H234.616Z" fill="#2F2E41"/>
<path d="M484.255 257.146V261.217H65.7449L66.0596 260.708V257.146H484.255Z" fill="#2F2E41"/>
</svg>
