<svg xmlns="http://www.w3.org/2000/svg" xmlns:xlink="http://www.w3.org/1999/xlink" version="1.1" x="0px" y="0px" viewBox="0 0 520 650" style="enable-background:new 0 0 520 520;" xml:space="preserve"><g><g><path d="M490,415.002h-23.162c5.118-5.809,8.162-13.4,8.162-21.5V148.501c0-17.92-14.579-32.5-32.5-32.5h-365    c-17.92,0-32.5,14.58-32.5,32.5v245.001c0,8.1,3.044,15.691,8.162,21.5H30c-2.761,0-5,2.238-5,5c0,35.841,29.159,65,65,65h340    c35.841,0,65-29.159,65-65C495,417.24,492.762,415.002,490,415.002z M55,393.502V148.501c0-12.407,10.093-22.5,22.5-22.5h365    c12.406,0,22.5,10.093,22.5,22.5v245.001c0,9.859-6.515,18.621-15.895,21.5H305c-2.762,0-5,2.238-5,5v15h-80v-15    c0-2.762-2.239-5-5-5H70.893C61.514,412.122,55,403.361,55,393.502z M430,475.002H90c-28.643,0-52.242-22.006-54.775-50H210v15    c0,2.761,2.239,5,5,5h90c2.762,0,5-2.239,5-5v-15h174.774C482.241,452.996,458.643,475.002,430,475.002z"/><path d="M430,385.002c2.762,0,5-2.239,5-5c-0.004-230.789,0.256-220.663-0.557-222.248c-0.248-0.49-0.283-0.59-0.771-1.122    c-0.049-0.054-0.087-0.117-0.139-0.168c-0.11-0.111-0.243-0.201-0.365-0.301c-0.585-0.483-0.303-0.257-0.672-0.47    c-0.719-0.417-0.748-0.357-0.969-0.429c-0.548-0.178-0.577-0.19-1.208-0.231c-0.108-0.007-0.211-0.032-0.32-0.032h-0.077    c-23.819,0-316.179,0-339.923,0c-2.761,0-5,2.239-5,5c0.002,219.746-0.055,220.208,0.104,221.015    c0.169,0.806,0.411,1.158,0.532,1.378c0.343,0.631,0.132,0.28,0.447,0.68c0.399,0.511,1.016,1.002,1.123,1.074    c0.057,0.038,0.125,0.064,0.184,0.1c0.224,0.138,0.452,0.27,0.698,0.371c0.007,0.003,0.013,0.008,0.02,0.011    c1.552,0.638-0.984,0.294,53.481,0.372C212.964,385.002,361.198,385.003,430,385.002z M159.537,335.362    c-2.563-1.029-5.474,0.213-6.504,2.775l-14.813,36.864H97.448l85.909-210.001h239.246L338.22,375.002H148.998l13.314-33.136    C163.342,339.304,162.1,336.392,159.537,335.362z M348.997,375.002L425,185.856v189.146H348.997z M172.552,165.001L95,354.573    V165.001H172.552z"/><path d="M115,100.002c11.028,0,20-8.972,20-20c0-11.028-8.972-20-20-20s-20,8.972-20,20C95,91.029,103.972,100.002,115,100.002z     M115,70.002c5.514,0,10,4.486,10,10c0,5.514-4.486,10-10,10c-5.514,0-10-4.486-10-10C105,74.487,109.486,70.002,115,70.002z"/><path d="M395,95.002c16.542,0,30-13.458,30-30s-13.458-30-30-30s-30,13.458-30,30S378.458,95.002,395,95.002z M395,45.001    c11.028,0,20,8.972,20,20c0,11.028-8.972,20-20,20c-11.028,0-20-8.972-20-20C375,53.974,383.972,45.001,395,45.001z"/><circle cx="177.5" cy="72.5" r="7.5"/><circle cx="262.5" cy="87.5" r="7.5"/><circle cx="337.5" cy="52.5" r="7.5"/><circle cx="467.5" cy="87.5" r="7.5"/><circle cx="57.5" cy="92.5" r="7.5"/><path d="M252.438,340.002H286c21.505,0,39-17.495,39-39v-47.251c0-2.761-2.238-5-5-5h-7.188v-5.156    c0-24.038-19.556-43.594-43.594-43.594c-24.038,0-43.594,19.556-43.594,43.594v5.156h-7.188c-2.761,0-5,2.239-5,5v47.251    C213.438,322.507,230.933,340.002,252.438,340.002z M235.625,243.595c0-18.523,15.07-33.594,33.594-33.594    c18.523,0,33.594,15.07,33.594,33.594v5.156h-67.188V243.595z M223.438,258.752c14.088,0,79.702,0,91.563,0v42.25    c0,15.99-13.01,29-29,29h-33.563c-15.991,0-29-13.01-29-29V258.752z"/><path d="M264.219,309.265v5.737c0,2.761,2.238,5,5,5c2.762,0,5-2.239,5-5v-5.737c7.22-2.157,12.5-8.852,12.5-16.763    c0-9.65-7.851-17.5-17.5-17.5c-9.649,0-17.5,7.85-17.5,17.5C251.719,300.413,256.999,307.107,264.219,309.265z M269.219,285.002    c4.136,0,7.5,3.364,7.5,7.5c0,4.136-3.364,7.5-7.5,7.5c-4.136,0-7.5-3.364-7.5-7.5    C261.719,288.366,265.083,285.002,269.219,285.002z"/></g></g><text x="0" y="535" fill="#000000" font-size="5px" font-weight="bold" font-family="'Helvetica Neue', Helvetica, Arial-Unicode, Arial, Sans-serif">Created by Flatart</text><text x="0" y="540" fill="#000000" font-size="5px" font-weight="bold" font-family="'Helvetica Neue', Helvetica, Arial-Unicode, Arial, Sans-serif">from the Noun Project</text></svg>