<svg xmlns="http://www.w3.org/2000/svg" data-name="Layer 1" viewBox="0 0 62.31 120" x="0px" y="0px"><title>08</title><path d="M47.8,28.58c-.51-1.34-4.08-1-4.08-1a3.35,3.35,0,0,0,1.53,1.5c1,.35,2.19,3.19,2.19,3.19A5.73,5.73,0,0,0,47.8,28.58Z" transform="translate(-18.84 -2)"/><path d="M47.12,33.92a.94.94,0,0,0,.89.77,1.64,1.64,0,0,1,1.17.48S48.37,33.54,47.12,33.92Z" transform="translate(-18.84 -2)"/><circle cx="41.57" cy="67.79" r="1.06"/><circle cx="47.21" cy="74.46" r="1.06"/><circle cx="35.52" cy="74.15" r="1.06"/><circle cx="41.41" cy="80.86" r="1.06"/><path d="M69.55,83.27a.73.73,0,0,0-1-1.07,2.1,2.1,0,0,1-1.24.38.5.5,0,0,1-.06-.23c-.18-1.62-.54-3.23-2.79-3.55-.58-.08-.76-1.39-.74-2.28,0-.12,0-.24,0-.37a5.39,5.39,0,0,0-.06-.75,20.87,20.87,0,0,0,2.5-3.08,7.47,7.47,0,0,1,.71-.25c1.07-.34,2.54-.82,2.83-2.1.22-1-.35-2.06-1.79-3.39a.73.73,0,0,0-1.15.86,2.14,2.14,0,0,1,.26,1.27.5.5,0,0,1-.24,0c-1.63,0-3.26.23-3.8,2.44-.23.93-1.71.79-1.73.79h0a2.87,2.87,0,0,0-1-.19,2.84,2.84,0,0,0-.57.06,18,18,0,0,0-2.51-1.79,7.51,7.51,0,0,1-.24-.71c-.33-1.08-.78-2.56-2.06-2.86-1-.23-2.07.32-3.41,1.74a.73.73,0,0,0,.84,1.17,2.09,2.09,0,0,1,1.28-.24.5.5,0,0,1,0,.24c0,1.63.18,3.26,2.38,3.84.92.24.77,1.73.76,1.74a.72.72,0,0,0,0,.33,5.39,5.39,0,0,0-.07.86A5.29,5.29,0,0,0,57,77.63a17.3,17.3,0,0,0-1.82,2.23c-.17,0-.51.09-.76.13-1.08.15-2.55.35-3,1.49-.32.89.15,2,1.49,3.44a.73.73,0,0,0,1.19-.83,1.65,1.65,0,0,1-.18-.69.93.93,0,0,1,.29,0c1.62.11,3.27,0,4-2.12.3-.9,1.77-.65,1.78-.65a.73.73,0,0,0,.56-.13l.27,0,0,0a19.27,19.27,0,0,0,2.83,1.6c.09.14.22.45.32.68.45,1,1.06,2.46,2.36,2.61h.23C67.51,85.39,68.46,84.71,69.55,83.27Zm-5.1-11.73c.24-1,.6-1.3,2.4-1.32a1.62,1.62,0,0,0,1.46-.74h0a.49.49,0,0,1,0,.18c-.1.46-1.19.81-1.85,1s-1.34.43-1.55.95a14.3,14.3,0,0,1-1.72,2.17,4.4,4.4,0,0,0-.35-.56A2.36,2.36,0,0,0,64.45,71.54Zm-2.15,4.6v.1c0,1.53-1,2.81-2,2.81s-2-1.33-2-2.9.94-2.9,2-2.9S62.3,74.57,62.3,76.14Zm-5.93-4.33c-1-.26-1.29-.62-1.29-2.42a1.62,1.62,0,0,0-.71-1.47h0a.48.48,0,0,1,.18,0c.46.11.79,1.2,1,1.86s.41,1.35.93,1.57a11.87,11.87,0,0,1,1.79,1.23,3.83,3.83,0,0,0-.4.41A2.27,2.27,0,0,0,56.38,71.81Zm.44,9c-.32,1-.71,1.24-2.5,1.12a1.76,1.76,0,0,0-1.45.44.63.63,0,0,1-.07-.4c.11-.31,1.28-.47,1.78-.54.84-.12,1.5-.21,1.77-.75a11.33,11.33,0,0,1,1.29-1.63,4.07,4.07,0,0,0,.34.41A2.26,2.26,0,0,0,56.82,80.81Zm9.71,3.11c-.47-.06-.92-1.11-1.19-1.74s-.56-1.3-1.09-1.46a12,12,0,0,1-1.93-1,3.91,3.91,0,0,0,.49-.53,2,2,0,0,0,1.48,1.1c1,.15,1.35.48,1.54,2.26a1.62,1.62,0,0,0,.87,1.39h0A.49.49,0,0,1,66.53,83.92Z" transform="translate(-18.84 -2)"/><path d="M81.16,84.81c-.54-11.52-6.67-23.72-8.3-25.65-1-1.19-2.25-4.25-3.06-6.42v-.11c.05-2.45-.26-5.9-3.29-8.49-1.53.69-3.58,1.65-5.29,2.61L57.85,49C59,48,60.4,46,61.32,45.46a32.88,32.88,0,0,0,3.35-2.59,10.63,10.63,0,0,0-1.52-2,13.64,13.64,0,0,0-3.31-1.4c-.61-.63-1.25-1.31-1.86-2-.15-.71-.48-2,.28-2.55a1.31,1.31,0,0,0,.52-1.1,3.92,3.92,0,0,0,1.64-1.43,3.42,3.42,0,0,0,.64-2.19c1-1.54,4.94-8.2.28-16.59a15.83,15.83,0,0,0-15.24-8.3l1.18,5.83,1.77,1.27a.71.71,0,0,0-.14.33l-.42,3.61a10.29,10.29,0,0,0-1.42.52,8,8,0,0,0-4.62,7.76h0a1.6,1.6,0,0,0-.17,1.06A14.49,14.49,0,0,0,42,27.93V28a9.94,9.94,0,0,0,.72,4.91,12.24,12.24,0,0,1,.55,1.72,9.44,9.44,0,0,0,2.6,4.95,6.86,6.86,0,0,1-.13,1.13,3.52,3.52,0,0,0-2.58.11c-1.65.5-1.25,1-2.68.68a1.65,1.65,0,0,0-1.92.76,2.39,2.39,0,0,0-1.44,1.09c-.83,1.3-.79,3.41.09,6.3l.2,2.38a14.14,14.14,0,0,0-.14,3.7c.31,2.54,1.16,3.83,1.93,4.49A38,38,0,0,0,39.71,67a37.54,37.54,0,0,0-7.55,2.43,21.44,21.44,0,0,1-2.32.91,1.83,1.83,0,0,0,.15-.72c0-1.51-1.89-2.48-2.1-2.58a.72.72,0,0,0-.23-.06L24.94,23.84a.73.73,0,0,0,.69-.72V19.86l1-6.68a.73.73,0,0,0,0-.37L22.43,2.46l0,0-.05-.08a.72.72,0,0,0-.1-.13l-.07-.06L22,2.06,22,2a.73.73,0,0,0-.26,0h0a.72.72,0,0,0-.25.08l-.07,0a.72.72,0,0,0-.14.11l-.06.07a.72.72,0,0,0-.08.15l0,.09,0,0L18.86,13.32a.73.73,0,0,0,0,.38L21,20l.43,3.24a.73.73,0,0,0,.73.64h0l2.62,45.57a4.41,4.41,0,0,0-2.38,1,2.75,2.75,0,0,0-.95,2.07c0,.3,0,.6,0,.91-.07,1.44-.15,3.24,1.5,3.74l.27.08a7,7,0,0,0,2.06.41h.15l1.31,19.23h2.75L28.28,77a9.22,9.22,0,0,1,3.92-.63c1.88.19,7.67,0,10-.91L43,77.82v0a27.09,27.09,0,0,0,.45,3.56c-.78,1.46-1.85,3.52-2.22,4.4C40.67,87.26,38,91.43,38,91.43l-.76,1.27a12.74,12.74,0,0,0,5,0c2.73-.54,3.07.54,6,1.93a5.64,5.64,0,0,0,3.48.53A14.49,14.49,0,0,0,60.26,98,15.4,15.4,0,0,0,71.8,92.39a5.82,5.82,0,0,0,3.26-.91c1.25-1,3.92.9,3.92.9L77.76,86C78.71,83.81,81.16,84.81,81.16,84.81Zm-33-25.5-.71-.14a1.45,1.45,0,0,1-1-.72c-.73-1.2-.49-3.55-.16-5.2,2.2,1.46,5.13,1.62,8.9,1.12.44-.06.86-.13,1.26-.2,0,.25,0,.5-.05.72h0a16.2,16.2,0,0,0-7.16,4.53A3.52,3.52,0,0,1,48.13,59.31Zm-5.56-14c.72,0,1.34.42,1.34.91s-.61.91-1.34.91-1.34-.42-1.34-.91S41.84,45.29,42.57,45.29ZM59.1,55.85l-2.16,4.82c-4.39,1.49-7.85,5.88-9,11.43L44.5,74.67C45.07,64.62,51.31,56.58,59.1,55.85Zm2.67,4.38a9.82,9.82,0,0,0-3,0l1.51-3.38ZM47.61,78,45,76.14l2.66-2c-.07.66-.1,1.32-.1,2S47.56,77.39,47.61,78ZM43.1,73.71l-.48-1.32-.87-3.11a.73.73,0,0,0,1.18-.23,3.62,3.62,0,0,1,1.5-1.63A26.3,26.3,0,0,0,43.1,73.71Zm1.4,3.89L47.89,80C49,85.5,52.31,89.91,56.6,91.53L59,96.47C51.26,95.71,45,87.65,44.5,77.6Zm14,14.45a10,10,0,0,0,3.53,0l-1.76,3.56Zm4.66-1.8h0a8.79,8.79,0,0,1-5.78,0h0C52.55,88.6,49,82.91,49,76.16c0-8,5.05-14.58,11.27-14.58s11.27,6.54,11.27,14.58C71.52,82.91,68,88.6,63.15,90.25Zm9.77-15.72,2.56,1.66L72.9,78c.05-.6.09-1.21.09-1.83S73,75.07,72.92,74.53Zm-.25-1.91c-1-5.8-4.57-10.42-9.1-12l-2.16-4.82c7.82.73,14.08,8.84,14.61,18.94Zm-7-23.41a1.86,1.86,0,0,1,2.17-.64,11.75,11.75,0,0,1,.54,4c0,1-.05,1.78-.08,2.45s-.05,1.23-.05,1.72a14.37,14.37,0,0,0-7.95-2.46,13.77,13.77,0,0,0-2.42.22c0-.23,0-.47,0-.69A14.06,14.06,0,0,0,65.64,49.22ZM52.56,13.51a5.38,5.38,0,0,1,3.17,1.05,7.92,7.92,0,0,1,2.68,4.1A10.39,10.39,0,0,0,52.56,16Zm-2.26.05h.8v2.39A10.38,10.38,0,0,0,50,16ZM47.69,18.2A8.93,8.93,0,0,1,58.54,21a8.31,8.31,0,0,1,.61,1h0a8.26,8.26,0,0,1,.51,6.43,1.92,1.92,0,0,0-.57-.12,2,2,0,0,0-.55,0A18.13,18.13,0,0,0,57.26,27a3,3,0,0,0,.45-.09,2.72,2.72,0,0,0,1.77-1.59,3.41,3.41,0,0,0-1.34-4.09,1.84,1.84,0,0,0-2.46.14,1.94,1.94,0,0,0-.05,2.74,1.4,1.4,0,0,0,2,.16.73.73,0,0,0-.89-1.16.41.41,0,0,1-.14-.21.58.58,0,0,1,.2-.55c.14-.16.43,0,.58.09a2,2,0,0,1,.81,2.27,1.26,1.26,0,0,1-.83.77,4.76,4.76,0,0,1-3.06-.81,13.64,13.64,0,0,0-6.05-2.38A7.86,7.86,0,0,0,44,23h0A6.24,6.24,0,0,1,47.69,18.2ZM48,41l.12,0a4.36,4.36,0,0,0,1.06.12,4.15,4.15,0,0,0,2.8-1A15,15,0,0,0,54.49,37a.73.73,0,0,0-1.25-.76A13.67,13.67,0,0,1,51,39a2.91,2.91,0,0,1-2.45.59c-2.73-1.29-3.29-3.35-3.83-5.33a13.26,13.26,0,0,0-.63-1.93,8.61,8.61,0,0,1-.6-4.16V28c0-.66.09-1.16.16-1.59a3.77,3.77,0,0,0,1.7-1.12c.85-1.1,3,.45,4.3-.53s1.22,1,3.53,1.69c.49.15,1,.92,1.46,1.69a13.24,13.24,0,0,0-3.14-.39c-1.4.08-1.56.53-1.56.53-.61,1.56-.19,2.81.27,1.92s1.59-.91,2-.93a13.59,13.59,0,0,0,1.94-.6,5.69,5.69,0,0,0,.64-.25,7.57,7.57,0,0,0,.87,1.25c.93.94,1.55.86,1.95.57a.72.72,0,0,0,.62-.19,1.27,1.27,0,0,1,.78-.36c.06,0,.24,0,.47.3s.11,1-.28,1.55a1.89,1.89,0,0,1-1.91,1,.73.73,0,0,0-.87.4l-.85,1.88a.73.73,0,0,0-.06.18,3.34,3.34,0,0,0,.53,2.47c1,1.19,2.25,2.47,3.29,3.53-.61.38-1.88,1.56-4.12,5.17-3.42,5.5-9.23,3-9.23,3a8,8,0,0,0,4.7-.43,5.26,5.26,0,0,0,2.72-2.54c-.95,0-6.1,0-8,0h0a2.15,2.15,0,0,0-.61-1.46,8,8,0,0,0,.6-1,.73.73,0,0,0,.41-.13,4.36,4.36,0,0,0,1.51-3C47.5,40.73,47.74,40.85,48,41Zm-9.23,14.6c-.36-3,1.12-7.45,1.13-7.49a.73.73,0,0,0-1.39-.47s-.07.22-.16.52c-.57-2.37-.26-3.46,0-3.92a1,1,0,0,1,.57-.5.73.73,0,0,0,.45-.27,9.92,9.92,0,0,1,1.15,1.15,2.19,2.19,0,0,0-.76,1.62,2.62,2.62,0,0,0,2.8,2.38l.26,0A10.65,10.65,0,0,0,45,52.18c-.38,1.56-1,5,.18,7a2.93,2.93,0,0,0,2,1.39l.68.14.19,0A21.74,21.74,0,0,0,45.93,64c0-1.1.14-2.07.14-2.09a.73.73,0,0,0-1.45-.18,21.14,21.14,0,0,0-.08,4,5.37,5.37,0,0,0-2.94,2.73.69.69,0,0,0,0,.14v0a31.25,31.25,0,0,1-.86-7.64l.44,0a15.34,15.34,0,0,0,2.75-.35.73.73,0,1,0-.3-1.43,9.9,9.9,0,0,1-2.85.29C40.47,59.37,39.15,58.79,38.76,55.57ZM28.52,69.64c0,.22-.24.49-.65.77l-.11-1.72C28.15,69,28.52,69.36,28.52,69.64ZM24.16,20.54v1.85H22.83l-.25-1.85Zm.1-1.46H24l-.59-5.27-.54-6.17,2.2,5.53ZM21.46,7.85l.53,6.1.58,5.13h-.29l-1.94-5.65Zm2.24,68-.29-.09c-.48-.14-.53-.79-.46-2.27,0-.33,0-.66,0-1a1.3,1.3,0,0,1,.47-1,3.28,3.28,0,0,1,2.14-.7l.4,0a.62.62,0,0,1,.45.25,4.06,4.06,0,0,1,.39,2.47v.06A3,3,0,0,1,26.07,76C25.47,76.41,24.45,76.09,23.7,75.85Zm8.65-1a10.37,10.37,0,0,0-4.16.57l0-.47a8.14,8.14,0,0,0,.13-1.26,7.57,7.57,0,0,0,0-1.52,14.33,14.33,0,0,0,4.46-1.4A36.66,36.66,0,0,1,40,68.45c0,.17.08.34.13.51l1.09,3.87.44,1.22C40.33,74.68,34.86,75.12,32.34,74.87Zm29.12,21.6,2.44-4.94c4.29-1.62,7.64-6,8.71-11.55L76,77.6C75.47,87.65,69.25,95.71,61.47,96.47Z" transform="translate(-18.84 -2)"/><!-- Credit parkjisun from the Noun Project--></svg>